<svg width="18" height="15" viewBox="0 0 18 15" fill="none" xmlns="http://www.w3.org/2000/svg">
<path d="M18 4.70315C17.6987 5.03462 17.3571 5.32592 16.9955 5.57703C15.3181 6.71208 13.6306 7.85717 11.9933 9.04244C11.1496 9.6652 10.1049 10.4286 9.01005 10.4286H8.98996C7.89509 10.4286 6.85045 9.6652 6.0067 9.04244C4.36942 7.84712 2.68192 6.71208 1.01451 5.57703C0.642857 5.32592 0.301339 5.03462 0 4.70315V12.6786C0 13.5625 0.723214 14.2857 1.60714 14.2857H16.3929C17.2768 14.2857 18 13.5625 18 12.6786V4.70315ZM18 1.75003C18 0.866097 17.2667 0.142883 16.3929 0.142883H1.60714C0.532366 0.142883 0 0.986633 0 1.97101C0 2.88507 1.01451 4.02012 1.72768 4.50226C3.2846 5.58708 4.86161 6.6719 6.41853 7.76677C7.07143 8.21878 8.17634 9.14288 8.98996 9.14288H9.01005C9.82366 9.14288 10.9286 8.21878 11.5815 7.76677C13.1384 6.6719 14.7154 5.58708 16.2824 4.50226C17.1663 3.88953 18 2.87503 18 1.75003Z" fill="black"/>
</svg>
