<svg width="49" height="48" viewBox="0 0 49 48" fill="none" xmlns="http://www.w3.org/2000/svg">
<path d="M45.125 2.15645L36.3125 0.1877C34.25 -0.28105 32.1875 0.7502 31.4375 2.6252L27.3125 12.1877C26.5625 13.8752 27.0313 15.9377 28.5313 17.1565L32.2813 20.2502C29.6563 25.1252 25.5313 29.1565 20.6563 31.8752L17.5625 28.1252C16.3438 26.6252 14.2813 26.1565 12.5938 26.9065L3.03125 30.9377C1.15625 31.7815 0.125002 33.8439 0.593752 35.9064L2.5625 44.7189C3.03125 46.6877 4.8125 48.0002 6.78125 48.0002C29.75 48.0002 48.5 29.4377 48.5 6.3752C48.5 4.40645 47.0938 2.6252 45.125 2.15645ZM6.96875 43.5002L5 35.0627L14.1875 31.1252L19.4375 37.5002C28.7188 33.0939 33.5 28.3127 37.9062 19.0315L31.5313 13.7815L35.4688 4.59395L44 6.5627C43.9062 26.9064 27.3125 43.4064 6.96875 43.5002Z" fill="#F7654A"/>
</svg>
